<svg xmlns:osb="http://www.openswatchbook.org/uri/2009/osb" xmlns="http://www.w3.org/2000/svg" xmlns:xlink="http://www.w3.org/1999/xlink" width="534" height="381.8">
  <defs>
    <linearGradient id="b" osb:paint="solid">
      <stop offset="0" stop-color="#0f80cc"/>
    </linearGradient>
    <linearGradient id="a" osb:paint="solid">
      <stop offset="0" stop-color="#003b57"/>
    </linearGradient>
    <linearGradient xlink:href="#a" id="y" x1="-91.09" y1="203.85" x2="291.36" y2="203.85" gradientUnits="userSpaceOnUse" gradientTransform="matrix(-1.00067 -.04612 -.04616 .99993 443.93 -20.4)"/>
    <linearGradient xlink:href="#b" id="f" gradientUnits="userSpaceOnUse" y1="256" x2="512" y2="256"/>
  </defs>
  <g transform="matrix(.37953 -.52122 .52122 .37953 -65.6 253.17)" fill="url(#f)">
    <path d="M256 205.91A50.14 50.14 0 0 0 205.91 256 50.14 50.14 0 0 0 256 306.09 50.14 50.14 0 0 0 306.09 256 50.14 50.14 0 0 0 256 205.91zm0 66.79a16.7 16.7 0 1 1 0-33.4 16.7 16.7 0 0 1 0 33.4z" fill="url(#f)"/>
    <path d="M256 0C114.84 0 0 114.84 0 256s114.84 256 256 256 256-114.84 256-256S397.16 0 256 0zm0 339.48c-46.03 0-83.48-37.45-83.48-83.48s37.45-83.48 83.48-83.48 83.48 37.45 83.48 83.48-37.45 83.48-83.48 83.48z" fill="url(#f)"/>
  </g>
  <path d="M369.98 54.69c46.17-60.82 151.74-59.4 163.1-49.56 6.33 5.5-21.08 21.36-41.23 59.93a307.02 307.02 0 0 0-44.52 10.24c12.2.97 24.7 2.2 37.6 3.77-7.62 16.83-14.11 36.67-19.6 58.2-23.28 10.5-44.28 22.96-64.96 35.7 18.81-.89 37.72-1.69 57.07-2.1-7.43 33.96-14.31 68.45-24.76 95a70.5 70.5 0 0 1-39.07 39.58c-17.2 7-35.72 12.86-56.27 16.96a892.92 892.92 0 0 0 57.53 5.64c-42.5 46.32-118.44 40.87-150.23 22.56-19.15.64-34.59-2-41.54-4.13-22.12-5.06-41.87-11.44-67.1-25.73l69.6 4.3c5.35.67 13.84.67 24.27-.19 4.18-19.97 31.55-47.41 51.63-95.22a959.4 959.4 0 0 1 14.87 57.22c3.47-21.58 4.38-45.39 3.74-70.53a146.59 146.59 0 0 1 9.92-56.92c12.15-30.75 28.02-64.77 49.72-92.63a3175.5 3175.5 0 0 0 13.65 38.93 965.88 965.88 0 0 1-3.42-51.02z" fill="url(#y)"/>
</svg>
